<svg width="238.951" height="70" viewBox="0 0 238.951 25.5" xmlns="http://www.w3.org/2000/svg"><g id="svgGroup" stroke-linecap="round" fill-rule="evenodd" font-size="9pt" stroke="#d8f3dc" stroke-width=".025mm" fill="#1b4332" style="stroke:#d8f3dc;stroke-width:.025mm;fill:#1b4332"><path d="M 105.6 12.81 L 105.6 20.4 L 101.1 20.4 L 101.1 5.37 L 105.27 5.37 L 105.27 9.93 L 105.51 9.93 Q 105.81 7.8 107.16 6.435 A 4.281 4.281 0 0 1 108.943 5.375 Q 109.602 5.166 110.398 5.1 A 9.168 9.168 0 0 1 111.15 5.07 A 7.404 7.404 0 0 1 112.734 5.23 Q 114.125 5.534 115.05 6.42 Q 116.46 7.77 116.73 9.99 L 117 9.99 A 6.741 6.741 0 0 1 117.543 8.082 A 5.62 5.62 0 0 1 118.68 6.45 Q 120.06 5.07 122.76 5.07 A 7.563 7.563 0 0 1 124.45 5.248 Q 125.687 5.531 126.566 6.267 A 4.626 4.626 0 0 1 127.035 6.72 A 5.659 5.659 0 0 1 128.373 9.462 A 8.09 8.09 0 0 1 128.52 11.04 L 128.52 20.4 L 124.02 20.4 L 124.02 12.54 A 7.434 7.434 0 0 0 123.972 11.666 Q 123.829 10.459 123.255 9.885 Q 122.49 9.12 120.57 9.12 Q 118.877 9.12 118.078 9.716 A 1.801 1.801 0 0 0 117.81 9.96 Q 117.06 10.8 117.06 12.81 L 117.06 20.4 L 112.56 20.4 L 112.56 12.54 A 7.434 7.434 0 0 0 112.512 11.666 Q 112.369 10.459 111.795 9.885 Q 111.03 9.12 109.11 9.12 Q 107.417 9.12 106.618 9.716 A 1.801 1.801 0 0 0 106.35 9.96 Q 105.6 10.8 105.6 12.81 Z M 0.18 13.62 L 0.18 13.44 L 4.68 13.44 L 4.68 13.98 A 3.161 3.161 0 0 0 4.768 14.751 A 1.922 1.922 0 0 0 5.7 16.005 A 2.952 2.952 0 0 0 6.356 16.268 Q 7.435 16.576 9.495 16.59 A 29.178 29.178 0 0 0 9.69 16.59 A 25.558 25.558 0 0 0 10.82 16.567 Q 12.514 16.492 13.215 16.17 Q 14.13 15.75 14.13 14.7 A 2.131 2.131 0 0 0 14.068 14.171 A 1.387 1.387 0 0 0 13.53 13.365 Q 12.93 12.93 11.37 12.66 L 5.73 11.85 A 10.683 10.683 0 0 1 3.428 11.245 Q 0.264 9.982 0.02 6.762 A 7.304 7.304 0 0 1 0 6.21 A 5.26 5.26 0 0 1 1.643 2.371 A 7.604 7.604 0 0 1 2.265 1.815 A 7.069 7.069 0 0 1 4.403 0.674 Q 6.358 0 9.21 0 A 17.172 17.172 0 0 1 11.686 0.167 Q 14.387 0.561 15.99 1.89 A 6.18 6.18 0 0 1 18.23 6.229 A 8.795 8.795 0 0 1 18.27 7.08 L 18.27 7.26 L 13.74 7.26 L 13.74 6.84 A 3.383 3.383 0 0 0 13.651 6.037 A 2.013 2.013 0 0 0 12.705 4.725 A 3 3 0 0 0 12.023 4.442 Q 10.897 4.11 8.76 4.11 A 19.054 19.054 0 0 0 7.665 4.139 Q 6.158 4.226 5.46 4.575 Q 4.53 5.04 4.53 6.03 A 2.266 2.266 0 0 0 4.576 6.504 Q 4.637 6.788 4.778 6.999 A 1.169 1.169 0 0 0 5.055 7.29 A 2.081 2.081 0 0 0 5.411 7.498 Q 5.808 7.684 6.425 7.828 A 10.261 10.261 0 0 0 6.87 7.92 L 12.51 8.82 A 12.435 12.435 0 0 1 14.895 9.43 Q 18.63 10.834 18.63 14.49 A 5.354 5.354 0 0 1 16.869 18.532 A 7.231 7.231 0 0 1 16.41 18.93 Q 14.816 20.201 12.047 20.559 A 18.412 18.412 0 0 1 9.69 20.7 A 18.798 18.798 0 0 1 7.029 20.524 Q 5.68 20.331 4.583 19.925 A 7.928 7.928 0 0 1 2.64 18.9 A 5.846 5.846 0 0 1 0.253 14.767 A 8.729 8.729 0 0 1 0.18 13.62 Z M 80.82 13.62 L 80.82 13.44 L 85.32 13.44 L 85.32 13.98 A 3.161 3.161 0 0 0 85.408 14.751 A 1.922 1.922 0 0 0 86.34 16.005 A 2.952 2.952 0 0 0 86.996 16.268 Q 88.075 16.576 90.135 16.59 A 29.178 29.178 0 0 0 90.33 16.59 A 25.558 25.558 0 0 0 91.46 16.567 Q 93.154 16.492 93.855 16.17 Q 94.77 15.75 94.77 14.7 A 2.131 2.131 0 0 0 94.708 14.171 A 1.387 1.387 0 0 0 94.17 13.365 Q 93.57 12.93 92.01 12.66 L 86.37 11.85 A 10.683 10.683 0 0 1 84.068 11.245 Q 80.904 9.982 80.66 6.762 A 7.304 7.304 0 0 1 80.64 6.21 A 5.26 5.26 0 0 1 82.283 2.371 A 7.604 7.604 0 0 1 82.905 1.815 A 7.069 7.069 0 0 1 85.043 0.674 Q 86.998 0 89.85 0 A 17.172 17.172 0 0 1 92.326 0.167 Q 95.027 0.561 96.63 1.89 A 6.18 6.18 0 0 1 98.87 6.229 A 8.795 8.795 0 0 1 98.91 7.08 L 98.91 7.26 L 94.38 7.26 L 94.38 6.84 A 3.383 3.383 0 0 0 94.291 6.037 A 2.013 2.013 0 0 0 93.345 4.725 A 3 3 0 0 0 92.663 4.442 Q 91.537 4.11 89.4 4.11 A 19.054 19.054 0 0 0 88.305 4.139 Q 86.798 4.226 86.1 4.575 Q 85.17 5.04 85.17 6.03 A 2.266 2.266 0 0 0 85.216 6.504 Q 85.277 6.788 85.418 6.999 A 1.169 1.169 0 0 0 85.695 7.29 A 2.081 2.081 0 0 0 86.051 7.498 Q 86.448 7.684 87.065 7.828 A 10.261 10.261 0 0 0 87.51 7.92 L 93.15 8.82 A 12.435 12.435 0 0 1 95.535 9.43 Q 99.27 10.834 99.27 14.49 A 5.354 5.354 0 0 1 97.509 18.532 A 7.231 7.231 0 0 1 97.05 18.93 Q 95.456 20.201 92.687 20.559 A 18.412 18.412 0 0 1 90.33 20.7 A 18.798 18.798 0 0 1 87.669 20.524 Q 86.32 20.331 85.223 19.925 A 7.928 7.928 0 0 1 83.28 18.9 A 5.846 5.846 0 0 1 80.893 14.767 A 8.729 8.729 0 0 1 80.82 13.62 Z M 184.41 12.87 L 184.41 20.4 L 179.91 20.4 L 179.91 0.3 L 184.41 0.3 L 184.41 9.96 L 184.65 9.96 A 6.441 6.441 0 0 1 185.488 7.722 A 5.984 5.984 0 0 1 186.54 6.45 A 4.929 4.929 0 0 1 188.54 5.354 Q 189.272 5.141 190.144 5.088 A 9.801 9.801 0 0 1 190.74 5.07 A 8.138 8.138 0 0 1 192.519 5.253 Q 193.692 5.515 194.553 6.156 A 4.722 4.722 0 0 1 195.225 6.765 Q 196.77 8.46 196.77 11.19 L 196.77 20.4 L 192.27 20.4 L 192.27 12.54 Q 192.27 10.702 191.433 9.928 A 1.92 1.92 0 0 0 191.385 9.885 Q 190.5 9.12 188.37 9.12 A 8.369 8.369 0 0 0 187.302 9.183 Q 186.154 9.332 185.511 9.829 A 2.134 2.134 0 0 0 185.295 10.02 A 2.715 2.715 0 0 0 184.694 10.998 Q 184.536 11.424 184.466 11.953 A 6.997 6.997 0 0 0 184.41 12.87 Z M 223.65 15.24 L 223.65 15.15 L 228.15 15.15 L 228.15 15.42 A 2.098 2.098 0 0 0 228.207 15.927 A 1.227 1.227 0 0 0 228.87 16.77 Q 229.59 17.13 231.54 17.13 A 15.922 15.922 0 0 0 232.294 17.114 Q 233.424 17.06 233.895 16.83 A 1.17 1.17 0 0 0 234.251 16.572 Q 234.465 16.337 234.502 15.989 A 1.413 1.413 0 0 0 234.51 15.84 Q 234.51 15.21 234.075 14.955 Q 233.672 14.719 232.482 14.547 A 17.661 17.661 0 0 0 232.29 14.52 L 228.06 14.01 A 8.938 8.938 0 0 1 226.244 13.637 Q 223.38 12.697 223.38 9.81 A 3.905 3.905 0 0 1 224.729 6.799 A 5.496 5.496 0 0 1 225.24 6.39 A 6.066 6.066 0 0 1 226.892 5.586 Q 228.434 5.086 230.647 5.071 A 20.33 20.33 0 0 1 230.79 5.07 A 15.929 15.929 0 0 1 232.943 5.206 Q 234.029 5.355 234.914 5.666 A 6.548 6.548 0 0 1 236.505 6.465 A 4.523 4.523 0 0 1 238.451 9.77 A 6.687 6.687 0 0 1 238.5 10.59 L 238.5 10.68 L 234 10.68 L 234 10.5 A 2.223 2.223 0 0 0 233.936 9.948 A 1.404 1.404 0 0 0 233.31 9.075 Q 232.62 8.64 230.64 8.64 A 14.325 14.325 0 0 0 229.925 8.657 Q 228.89 8.709 228.436 8.925 A 1.206 1.206 0 0 0 228.405 8.94 A 1.012 1.012 0 0 0 227.852 9.663 A 1.57 1.57 0 0 0 227.82 9.99 A 1.175 1.175 0 0 0 227.876 10.365 A 0.924 0.924 0 0 0 228.3 10.875 A 1.757 1.757 0 0 0 228.6 11.011 Q 229.14 11.205 230.22 11.34 L 233.43 11.73 A 16.028 16.028 0 0 1 234.928 11.963 Q 236.419 12.275 237.311 12.835 A 3.724 3.724 0 0 1 237.675 13.095 A 3.372 3.372 0 0 1 238.903 15.328 A 4.944 4.944 0 0 1 238.95 16.02 A 3.718 3.718 0 0 1 237.608 18.939 A 5.465 5.465 0 0 1 236.955 19.425 Q 234.96 20.7 231.51 20.7 Q 227.73 20.7 225.69 19.275 A 4.534 4.534 0 0 1 223.695 15.989 A 6.063 6.063 0 0 1 223.65 15.24 Z M 20.43 14.73 L 20.43 5.37 L 24.93 5.37 L 24.93 13.23 A 5.973 5.973 0 0 0 25 14.179 Q 25.08 14.673 25.25 15.062 A 2.359 2.359 0 0 0 25.815 15.87 A 2.529 2.529 0 0 0 26.608 16.348 Q 27.455 16.68 28.8 16.68 A 8.484 8.484 0 0 0 29.86 16.619 Q 31.203 16.449 31.875 15.81 A 2.591 2.591 0 0 0 32.501 14.842 Q 32.79 14.087 32.79 12.99 L 32.79 5.37 L 37.29 5.37 L 37.29 20.4 L 33.09 20.4 L 33.09 15.81 L 32.85 15.81 Q 32.52 17.91 30.975 19.305 A 5.108 5.108 0 0 1 28.922 20.414 Q 27.921 20.7 26.67 20.7 A 8.976 8.976 0 0 1 24.861 20.529 Q 23.788 20.309 22.968 19.802 A 4.771 4.771 0 0 1 22.02 19.035 Q 20.43 17.37 20.43 14.73 Z M 44.1 16.35 L 44.1 25.5 L 39.6 25.5 L 39.6 5.37 L 43.77 5.37 L 43.77 9.48 L 44.07 9.48 A 5.852 5.852 0 0 1 44.933 7.275 Q 46.422 5.07 50.07 5.07 A 8.957 8.957 0 0 1 52.241 5.318 A 6.103 6.103 0 0 1 55.38 7.17 A 7.043 7.043 0 0 1 56.946 10.156 Q 57.228 11.237 57.265 12.517 A 13.483 13.483 0 0 1 57.27 12.9 A 11.54 11.54 0 0 1 57.052 15.213 Q 56.763 16.627 56.089 17.72 A 6.483 6.483 0 0 1 55.425 18.615 A 6.014 6.014 0 0 1 52.013 20.531 A 9.006 9.006 0 0 1 50.22 20.7 A 9.107 9.107 0 0 1 48.593 20.564 Q 47.697 20.401 46.98 20.044 A 4.722 4.722 0 0 1 46.185 19.545 A 4.961 4.961 0 0 1 44.441 16.906 A 6.511 6.511 0 0 1 44.31 16.35 L 44.1 16.35 Z M 63.42 12.75 L 69.87 12.09 L 69.87 11.52 A 4.489 4.489 0 0 0 69.822 10.839 Q 69.684 9.945 69.15 9.555 A 2.05 2.05 0 0 0 68.608 9.284 Q 68.059 9.095 67.212 9.047 A 10.822 10.822 0 0 0 66.6 9.03 A 9.226 9.226 0 0 0 65.793 9.063 Q 64.676 9.161 64.125 9.555 Q 63.39 10.08 63.39 11.34 L 63.39 11.46 L 58.86 11.46 L 58.86 11.37 A 5.869 5.869 0 0 1 59.341 8.964 Q 59.887 7.735 61.05 6.81 Q 63.015 5.249 66.189 5.089 A 14.707 14.707 0 0 1 66.93 5.07 A 12.271 12.271 0 0 1 69.018 5.236 Q 70.124 5.427 71.002 5.84 A 5.565 5.565 0 0 1 72.45 6.81 A 5.737 5.737 0 0 1 74.175 10.041 A 8.376 8.376 0 0 1 74.31 11.58 L 74.31 20.4 L 70.11 20.4 L 70.11 16.95 L 69.87 16.95 Q 69.33 18.72 67.77 19.71 A 5.964 5.964 0 0 1 65.993 20.451 Q 64.985 20.7 63.75 20.7 A 8.978 8.978 0 0 1 62.268 20.586 Q 60.867 20.351 59.94 19.635 Q 58.56 18.57 58.56 16.68 A 3.291 3.291 0 0 1 60.262 13.651 Q 61.436 12.958 63.42 12.75 Z M 221.88 13.8 L 209.64 13.8 A 5.579 5.579 0 0 0 209.762 14.74 Q 209.999 15.791 210.66 16.335 Q 211.59 17.1 213.75 17.1 A 12.281 12.281 0 0 0 214.655 17.069 Q 215.547 17.003 216.118 16.795 A 2.36 2.36 0 0 0 216.525 16.605 A 1.721 1.721 0 0 0 217.067 16.11 Q 217.301 15.771 217.342 15.315 A 2.208 2.208 0 0 0 217.35 15.12 L 217.35 14.82 L 221.85 14.82 L 221.85 15.15 A 4.561 4.561 0 0 1 220.262 18.676 A 6.46 6.46 0 0 1 219.66 19.155 Q 217.74 20.51 214.758 20.677 A 15.367 15.367 0 0 1 213.9 20.7 A 12.548 12.548 0 0 1 211.412 20.468 Q 209.872 20.156 208.68 19.426 A 7.085 7.085 0 0 1 207.735 18.735 A 6.273 6.273 0 0 1 205.795 15.559 Q 205.47 14.367 205.47 12.9 A 8.98 8.98 0 0 1 205.813 10.354 A 6.878 6.878 0 0 1 207.765 7.2 Q 210.06 5.07 213.81 5.07 A 14.677 14.677 0 0 1 213.869 5.07 Q 217.058 5.083 219.133 6.482 A 7.01 7.01 0 0 1 219.78 6.975 Q 222 8.88 222 12.36 Q 222 12.773 221.884 13.766 A 42.129 42.129 0 0 1 221.88 13.8 Z M 178.23 16.35 L 178.23 20.4 L 174.51 20.4 A 8.463 8.463 0 0 1 172.312 20.14 Q 169.456 19.37 168.97 16.318 A 8.58 8.58 0 0 1 168.87 14.97 L 168.87 9.09 L 166.5 9.09 L 166.5 5.37 L 168.87 5.37 L 168.87 2.46 L 173.37 2.46 L 173.37 5.37 L 178.23 5.37 L 178.23 9.09 L 173.37 9.09 L 173.37 14.46 A 4.131 4.131 0 0 0 173.399 14.969 Q 173.466 15.505 173.687 15.802 A 0.929 0.929 0 0 0 173.835 15.96 A 1.263 1.263 0 0 0 174.2 16.166 Q 174.684 16.35 175.53 16.35 L 178.23 16.35 Z M 145.035 18.57 Q 142.68 20.7 138.81 20.7 A 11.425 11.425 0 0 1 136.121 20.401 A 7.963 7.963 0 0 1 132.585 18.57 Q 130.23 16.44 130.23 12.9 A 8.751 8.751 0 0 1 130.589 10.331 A 6.853 6.853 0 0 1 132.585 7.2 Q 134.94 5.07 138.81 5.07 A 11.425 11.425 0 0 1 141.499 5.37 A 7.963 7.963 0 0 1 145.035 7.2 A 7.039 7.039 0 0 1 147.331 11.807 A 9.869 9.869 0 0 1 147.39 12.9 A 8.606 8.606 0 0 1 147.016 15.497 A 6.857 6.857 0 0 1 145.035 18.57 Z M 163.455 18.57 Q 161.1 20.7 157.23 20.7 A 11.425 11.425 0 0 1 154.541 20.401 A 7.963 7.963 0 0 1 151.005 18.57 Q 148.65 16.44 148.65 12.9 A 8.751 8.751 0 0 1 149.009 10.331 A 6.853 6.853 0 0 1 151.005 7.2 Q 153.36 5.07 157.23 5.07 A 11.425 11.425 0 0 1 159.919 5.37 A 7.963 7.963 0 0 1 163.455 7.2 A 7.039 7.039 0 0 1 165.751 11.807 A 9.869 9.869 0 0 1 165.81 12.9 A 8.606 8.606 0 0 1 165.436 15.497 A 6.857 6.857 0 0 1 163.455 18.57 Z M 203.55 5.37 L 203.55 20.4 L 199.05 20.4 L 199.05 5.37 L 203.55 5.37 Z M 44.1 12.87 L 44.1 13.11 A 4.963 4.963 0 0 0 44.192 14.098 Q 44.417 15.204 45.195 15.78 A 3.524 3.524 0 0 0 46.194 16.282 Q 47.121 16.588 48.46 16.59 A 11.85 11.85 0 0 0 48.48 16.59 A 9.299 9.299 0 0 0 49.618 16.526 Q 50.827 16.376 51.535 15.88 A 2.507 2.507 0 0 0 51.705 15.75 A 2.487 2.487 0 0 0 52.418 14.727 Q 52.71 13.984 52.71 12.9 A 6.321 6.321 0 0 0 52.635 11.888 Q 52.549 11.361 52.365 10.947 A 2.434 2.434 0 0 0 51.705 10.05 Q 50.741 9.244 48.685 9.212 A 11.05 11.05 0 0 0 48.51 9.21 A 9.472 9.472 0 0 0 47.337 9.278 Q 46.03 9.441 45.265 10.001 A 2.763 2.763 0 0 0 45.18 10.065 A 2.622 2.622 0 0 0 44.337 11.283 Q 44.182 11.725 44.128 12.27 A 6.149 6.149 0 0 0 44.1 12.87 Z M 135.63 15.81 A 2.647 2.647 0 0 0 136.508 16.356 Q 137.31 16.675 138.533 16.707 A 10.642 10.642 0 0 0 138.81 16.71 Q 140.808 16.71 141.765 16.001 A 2.249 2.249 0 0 0 141.99 15.81 A 2.687 2.687 0 0 0 142.626 14.811 Q 142.787 14.385 142.86 13.853 A 7.021 7.021 0 0 0 142.92 12.9 A 6.764 6.764 0 0 0 142.841 11.828 Q 142.647 10.621 141.975 9.96 A 2.734 2.734 0 0 0 141.042 9.376 Q 140.219 9.052 138.98 9.032 A 10.25 10.25 0 0 0 138.81 9.03 A 8.715 8.715 0 0 0 137.708 9.095 Q 136.512 9.248 135.84 9.763 A 2.251 2.251 0 0 0 135.63 9.945 Q 134.94 10.624 134.762 11.921 A 7.212 7.212 0 0 0 134.7 12.9 A 6.868 6.868 0 0 0 134.774 13.943 Q 134.856 14.477 135.03 14.901 A 2.642 2.642 0 0 0 135.63 15.81 Z M 154.05 15.81 A 2.647 2.647 0 0 0 154.928 16.356 Q 155.73 16.675 156.953 16.707 A 10.642 10.642 0 0 0 157.23 16.71 Q 159.228 16.71 160.185 16.001 A 2.249 2.249 0 0 0 160.41 15.81 A 2.687 2.687 0 0 0 161.046 14.811 Q 161.207 14.385 161.28 13.853 A 7.021 7.021 0 0 0 161.34 12.9 A 6.764 6.764 0 0 0 161.261 11.828 Q 161.067 10.621 160.395 9.96 A 2.734 2.734 0 0 0 159.462 9.376 Q 158.639 9.052 157.4 9.032 A 10.25 10.25 0 0 0 157.23 9.03 A 8.715 8.715 0 0 0 156.128 9.095 Q 154.932 9.248 154.26 9.763 A 2.251 2.251 0 0 0 154.05 9.945 Q 153.36 10.624 153.182 11.921 A 7.212 7.212 0 0 0 153.12 12.9 A 6.868 6.868 0 0 0 153.194 13.943 Q 153.276 14.477 153.45 14.901 A 2.642 2.642 0 0 0 154.05 15.81 Z M 209.7 11.43 L 217.68 11.43 A 3.958 3.958 0 0 0 217.54 10.573 Q 217.295 9.719 216.645 9.255 Q 215.7 8.58 213.72 8.58 A 9.069 9.069 0 0 0 212.688 8.635 Q 211.474 8.774 210.795 9.27 Q 209.871 9.945 209.707 11.365 A 4.939 4.939 0 0 0 209.7 11.43 Z M 69.87 14.67 L 64.65 15.27 A 3.702 3.702 0 0 0 64.09 15.353 Q 63.09 15.587 63.09 16.38 A 0.943 0.943 0 0 0 63.665 17.282 Q 64.092 17.492 64.836 17.517 A 6.148 6.148 0 0 0 65.04 17.52 A 14.019 14.019 0 0 0 66.279 17.469 Q 67.743 17.339 68.595 16.875 Q 69.78 16.23 69.87 14.67 Z M 203.55 0.3 L 203.55 3.84 L 199.05 3.84 L 199.05 0.3 L 203.55 0.3 Z" vector-effect="non-scaling-stroke"/></g></svg>